NotoSansRunic-Regular.ufo
<glyph name="uni0323" format="2">
	<unicode hex="0323"/>
	<advance width="103"/>
	<outline>
		<contour>
			<point x="52" y="-200" type="curve" smooth="yes"/>
			<point x="79" y="-200"/>
			<point x="103" y="-182"/>
			<point x="103" y="-144" type="curve" smooth="yes"/>
			<point x="103" y="-105"/>
			<point x="79" y="-88"/>
			<point x="52" y="-88" type="curve" smooth="yes"/>
			<point x="23" y="-88"/>
			<point x="0" y="-105"/>
			<point x="0" y="-144" type="curve" smooth="yes"/>
			<point x="0" y="-182"/>
			<point x="23" y="-200"/>
		</contour>
	</outline>
	<anchor name="_below" x="52" y="-88"/>
</glyph>
<glyph name="uni16A0" format="2">
	<unicode hex="16A0"/>
	<advance width="681"/>
	<outline>
		<contour>
			<point x="97" y="0" type="line"/>
			<point x="187" y="0" type="line"/>
			<point x="187" y="249" type="line"/>
			<point x="460" y="249"/>
			<point x="666" y="420"/>
			<point x="666" y="703" type="curve" smooth="yes"/>
			<point x="666" y="714" type="line"/>
			<point x="571" y="714" type="line"/>
			<point x="571" y="704" type="line" smooth="yes"/>
			<point x="571" y="473"/>
			<point x="399" y="329"/>
			<point x="187" y="329" type="curve"/>
			<point x="187" y="440" type="line"/>
			<point x="325" y="440"/>
			<point x="445" y="557"/>
			<point x="445" y="703" type="curve" smooth="yes"/>
			<point x="445" y="714" type="line"/>
			<point x="350" y="714" type="line"/>
			<point x="350" y="704" type="line" smooth="yes"/>
			<point x="350" y="608"/>
			<point x="286" y="520"/>
			<point x="187" y="520" type="curve"/>
			<point x="187" y="714" type="line"/>
			<point x="97" y="714" type="line"/>
		</contour>
	</outline>
	<anchor name="below" x="381" y="-126"/>
</glyph>
<glyph name="uni16A1" format="2">
	<unicode hex="16A1"/>
	<advance width="706"/>
	<outline>
		<contour>
			<point x="97" y="0" type="line"/>
			<point x="187" y="0" type="line"/>
			<point x="187" y="249" type="line"/>
			<point x="485" y="249"/>
			<point x="691" y="420"/>
			<point x="691" y="703" type="curve" smooth="yes"/>
			<point x="691" y="714" type="line"/>
			<point x="596" y="714" type="line"/>
			<point x="596" y="704" type="line" smooth="yes"/>
			<point x="596" y="473"/>
			<point x="422" y="329"/>
			<point x="187" y="329" type="curve"/>
			<point x="187" y="440" type="line"/>
			<point x="350" y="440"/>
			<point x="470" y="557"/>
			<point x="470" y="703" type="curve" smooth="yes"/>
			<point x="470" y="714" type="line"/>
			<point x="375" y="714" type="line"/>
			<point x="375" y="704" type="line" smooth="yes"/>
			<point x="375" y="608"/>
			<point x="311" y="520"/>
			<point x="187" y="520" type="curve"/>
			<point x="187" y="714" type="line"/>
			<point x="97" y="714" type="line"/>
		</contour>
		<contour>
			<point x="271" y="613" type="curve" smooth="yes"/>
			<point x="298" y="613"/>
			<point x="322" y="631"/>
			<point x="322" y="669" type="curve" smooth="yes"/>
			<point x="322" y="708"/>
			<point x="298" y="725"/>
			<point x="271" y="725" type="curve" smooth="yes"/>
			<point x="242" y="725"/>
			<point x="219" y="708"/>
			<point x="219" y="669" type="curve" smooth="yes"/>
			<point x="219" y="631"/>
			<point x="242" y="613"/>
		</contour>
	</outline>
	<anchor name="below" x="381" y="-126"/>
</glyph>
<glyph name="uni16A2" format="2">
	<unicode hex="16A2"/>
	<advance width="684"/>
	<outline>
		<contour>
			<point x="97" y="0" type="line"/>
			<point x="187" y="0" type="line"/>
			<point x="187" y="619" type="line"/>
			<point x="360" y="619"/>
			<point x="504" y="541"/>
			<point x="504" y="353" type="curve" smooth="yes"/>
			<point x="504" y="0" type="line"/>
			<point x="597" y="0" type="line"/>
			<point x="597" y="358" type="line" smooth="yes"/>
			<point x="597" y="613"/>
			<point x="389" y="714"/>
			<point x="192" y="714" type="curve" smooth="yes"/>
			<point x="97" y="714" type="line"/>
		</contour>
	</outline>
	<anchor name="below" x="347" y="-126"/>
</glyph>
<glyph name="uni16A3" format="2">
  <advance width="599"/>
  <unicode hex="16A3"/>
  <outline>
    <contour>
      <point x="97" y="0" type="line"/>
      <point x="187" y="0" type="line"/>
      <point x="187" y="481" type="line" smooth="yes"/>
      <point x="187" y="507"/>
      <point x="184" y="561"/>
      <point x="181" y="594" type="curve"/>
      <point x="494" y="0" type="line"/>
      <point x="599" y="0" type="line"/>
      <point x="208" y="714" type="line"/>
      <point x="97" y="714" type="line"/>
    </contour>
    <contour>
      <point x="267" y="0" type="line"/>
      <point x="346" y="0" type="line"/>
      <point x="346" y="184" type="line"/>
      <point x="267" y="184" type="line"/>
    </contour>
  </outline>
</glyph>
<glyph name="uni16A4" format="2">
	<unicode hex="16A4"/>
	<advance width="684"/>
	<outline>
		<contour>
			<point x="97" y="0" type="line"/>
			<point x="187" y="0" type="line"/>
			<point x="187" y="619" type="line"/>
			<point x="360" y="619"/>
			<point x="504" y="541"/>
			<point x="504" y="353" type="curve" smooth="yes"/>
			<point x="504" y="0" type="line"/>
			<point x="597" y="0" type="line"/>
			<point x="597" y="358" type="line" smooth="yes"/>
			<point x="597" y="613"/>
			<point x="389" y="714"/>
			<point x="192" y="714" type="curve" smooth="yes"/>
			<point x="97" y="714" type="line"/>
		</contour>
		<contour>
			<point x="340" y="282" type="curve" smooth="yes"/>
			<point x="367" y="282"/>
			<point x="391" y="300"/>
			<point x="391" y="338" type="curve" smooth="yes"/>
			<point x="391" y="377"/>
			<point x="367" y="394"/>
			<point x="340" y="394" type="curve" smooth="yes"/>
			<point x="311" y="394"/>
			<point x="288" y="377"/>
			<point x="288" y="338" type="curve" smooth="yes"/>
			<point x="288" y="300"/>
			<point x="311" y="282"/>
		</contour>
	</outline>
	<anchor name="below" x="347" y="-126"/>
</glyph>
<glyph name="uni16A5" format="2">
	<unicode hex="16A5"/>
	<advance width="684"/>
	<outline>
		<contour>
			<point x="97" y="0" type="line"/>
			<point x="187" y="0" type="line"/>
			<point x="187" y="345" type="line"/>
			<point x="253" y="345"/>
			<point x="304" y="304"/>
			<point x="304" y="182" type="curve" smooth="yes"/>
			<point x="304" y="0" type="line"/>
			<point x="392" y="0" type="line"/>
			<point x="392" y="198" type="line" smooth="yes"/>
			<point x="392" y="359"/>
			<point x="298" y="417"/>
			<point x="187" y="417" type="curve"/>
			<point x="187" y="619" type="line"/>
			<point x="360" y="619"/>
			<point x="509" y="541"/>
			<point x="509" y="353" type="curve" smooth="yes"/>
			<point x="509" y="0" type="line"/>
			<point x="597" y="0" type="line"/>
			<point x="597" y="358" type="line" smooth="yes"/>
			<point x="597" y="613"/>
			<point x="389" y="714"/>
			<point x="192" y="714" type="curve" smooth="yes"/>
			<point x="97" y="714" type="line"/>
		</contour>
	</outline>
	<anchor name="below" x="381" y="-126"/>
</glyph>
<glyph name="uni16A6" format="2">
	<unicode hex="16A6"/>
	<advance width="525"/>
	<outline>
		<contour>
			<point x="97" y="0" type="line"/>
			<point x="182" y="0" type="line"/>
			<point x="182" y="88" type="line"/>
			<point x="330" y="104"/>
			<point x="475" y="158"/>
			<point x="475" y="367" type="curve" smooth="yes"/>
			<point x="475" y="527"/>
			<point x="372" y="603"/>
			<point x="182" y="626" type="curve"/>
			<point x="182" y="714" type="line"/>
			<point x="97" y="714" type="line"/>
		</contour>
		<contour>
			<point x="182" y="164" type="curve"/>
			<point x="182" y="546" type="line"/>
			<point x="316" y="530"/>
			<point x="380" y="483"/>
			<point x="380" y="364" type="curve" smooth="yes"/>
			<point x="380" y="218"/>
			<point x="311" y="185"/>
		</contour>
	</outline>
	<anchor name="below" x="286" y="-126"/>
</glyph>
<glyph name="uni16A7" format="2">
	<unicode hex="16A7"/>
	<advance width="525"/>
	<outline>
		<contour>
			<point x="97" y="0" type="line"/>
			<point x="182" y="0" type="line"/>
			<point x="182" y="88" type="line"/>
			<point x="330" y="104"/>
			<point x="475" y="158"/>
			<point x="475" y="367" type="curve" smooth="yes"/>
			<point x="475" y="527"/>
			<point x="372" y="603"/>
			<point x="182" y="626" type="curve"/>
			<point x="182" y="714" type="line"/>
			<point x="97" y="714" type="line"/>
		</contour>
		<contour>
			<point x="276" y="303" type="curve" smooth="yes"/>
			<point x="303" y="303"/>
			<point x="327" y="321"/>
			<point x="327" y="359" type="curve" smooth="yes"/>
			<point x="327" y="398"/>
			<point x="303" y="415"/>
			<point x="276" y="415" type="curve" smooth="yes"/>
			<point x="247" y="415"/>
			<point x="224" y="398"/>
			<point x="224" y="359" type="curve" smooth="yes"/>
			<point x="224" y="321"/>
			<point x="247" y="303"/>
		</contour>
		<contour>
			<point x="182" y="164" type="curve"/>
			<point x="182" y="546" type="line"/>
			<point x="316" y="530"/>
			<point x="380" y="483"/>
			<point x="380" y="364" type="curve" smooth="yes"/>
			<point x="380" y="218"/>
			<point x="311" y="185"/>
		</contour>
	</outline>
	<anchor name="below" x="286" y="-126"/>
</glyph>
<glyph name="uni16A8" format="2">
  <advance width="396"/>
  <unicode hex="16A8"/>
  <outline>
    <contour>
      <point x="97" y="0" type="line"/>
      <point x="187" y="0" type="line"/>
      <point x="187" y="471" type="line"/>
      <point x="320" y="394" type="line"/>
      <point x="355" y="454" type="line"/>
      <point x="187" y="553" type="line"/>
      <point x="187" y="632" type="line"/>
      <point x="320" y="555" type="line"/>
      <point x="355" y="615" type="line"/>
      <point x="187" y="714" type="line"/>
      <point x="97" y="714" type="line"/>
    </contour>
  </outline>
</glyph>
<glyph name="uni16A9" format="2">
	<unicode hex="16A9"/>
	<advance width="589"/>
	<outline>
		<contour>
			<point x="97" y="0" type="line"/>
			<point x="187" y="0" type="line"/>
			<point x="187" y="470" type="line"/>
			<point x="383" y="356" type="line"/>
			<point x="548" y="471" type="line"/>
			<point x="548" y="553" type="line"/>
			<point x="382" y="437" type="line"/>
			<point x="187" y="553" type="line"/>
			<point x="187" y="632" type="line"/>
			<point x="383" y="516" type="line"/>
			<point x="548" y="632" type="line"/>
			<point x="548" y="714" type="line"/>
			<point x="382" y="598" type="line"/>
			<point x="187" y="714" type="line"/>
			<point x="97" y="714" type="line"/>
		</contour>
	</outline>
	<anchor name="below" x="142" y="-126"/>
</glyph>
<glyph name="uni16AA" format="2">
  <advance width="589"/>
  <unicode hex="16AA"/>
  <outline>
    <contour>
      <point x="97" y="0" type="line"/>
      <point x="187" y="0" type="line"/>
      <point x="187" y="470" type="line"/>
      <point x="382" y="354" type="line"/>
      <point x="382" y="437" type="line"/>
      <point x="187" y="553" type="line"/>
      <point x="187" y="632" type="line"/>
      <point x="383" y="516" type="line"/>
      <point x="548" y="632" type="line"/>
      <point x="548" y="714" type="line"/>
      <point x="382" y="598" type="line"/>
      <point x="187" y="714" type="line"/>
      <point x="97" y="714" type="line"/>
    </contour>
  </outline>
</glyph>
<glyph name="uni16AB" format="2">
  <advance width="556"/>
  <unicode hex="16AB"/>
  <outline>
    <contour>
      <point x="97" y="0" type="line"/>
      <point x="187" y="0" type="line"/>
      <point x="187" y="471" type="line"/>
      <point x="480" y="300" type="line"/>
      <point x="515" y="360" type="line"/>
      <point x="187" y="553" type="line"/>
      <point x="187" y="632" type="line"/>
      <point x="480" y="461" type="line"/>
      <point x="515" y="521" type="line"/>
      <point x="187" y="714" type="line"/>
      <point x="97" y="714" type="line"/>
    </contour>
  </outline>
</glyph>
<glyph name="uni16AC" format="2">
	<unicode hex="16AC"/>
	<advance width="505"/>
	<outline>
		<contour>
			<point x="209" y="0" type="line"/>
			<point x="297" y="0" type="line"/>
			<point x="297" y="226" type="line"/>
			<point x="429" y="149" type="line"/>
			<point x="464" y="209" type="line"/>
			<point x="297" y="308" type="line"/>
			<point x="297" y="387" type="line"/>
			<point x="429" y="310" type="line"/>
			<point x="464" y="370" type="line"/>
			<point x="297" y="469" type="line"/>
			<point x="297" y="714" type="line"/>
			<point x="209" y="714" type="line"/>
			<point x="209" y="521" type="line"/>
			<point x="76" y="600" type="line"/>
			<point x="40" y="537" type="line"/>
			<point x="209" y="438" type="line"/>
			<point x="209" y="360" type="line"/>
			<point x="76" y="439" type="line"/>
			<point x="40" y="376" type="line"/>
			<point x="209" y="277" type="line"/>
		</contour>
	</outline>
	<anchor name="below" x="253" y="-126"/>
</glyph>
<glyph name="uni16AD" format="2">
	<unicode hex="16AD"/>
	<advance width="396"/>
	<outline>
		<contour>
			<point x="97" y="0" type="line"/>
			<point x="187" y="0" type="line"/>
			<point x="187" y="225" type="line"/>
			<point x="320" y="148" type="line"/>
			<point x="355" y="208" type="line"/>
			<point x="187" y="307" type="line"/>
			<point x="187" y="386" type="line"/>
			<point x="320" y="309" type="line"/>
			<point x="355" y="369" type="line"/>
			<point x="187" y="468" type="line"/>
			<point x="187" y="714" type="line"/>
			<point x="97" y="714" type="line"/>
		</contour>
	</outline>
	<anchor name="below" x="142" y="-126"/>
</glyph>
<glyph name="uni16AE" format="2">
	<unicode hex="16AE"/>
	<advance width="402"/>
	<outline>
		<contour>
			<point x="214" y="0" type="line"/>
			<point x="304" y="0" type="line"/>
			<point x="304" y="714" type="line"/>
			<point x="214" y="714" type="line"/>
			<point x="214" y="475" type="line"/>
			<point x="40" y="382" type="line"/>
			<point x="76" y="322" type="line"/>
			<point x="214" y="396" type="line"/>
			<point x="214" y="314" type="line"/>
			<point x="40" y="221" type="line"/>
			<point x="76" y="161" type="line"/>
			<point x="214" y="235" type="line"/>
		</contour>
	</outline>
	<anchor name="below" x="259" y="-126"/>
</glyph>
<glyph name="uni16AF" format="2">
	<unicode hex="16AF"/>
	<advance width="517"/>
	<outline>
		<contour>
			<point x="214" y="0" type="line"/>
			<point x="302" y="0" type="line"/>
			<point x="302" y="279" type="line"/>
			<point x="476" y="374" type="line"/>
			<point x="446" y="436" type="line"/>
			<point x="302" y="359" type="line"/>
			<point x="302" y="440" type="line"/>
			<point x="476" y="535" type="line"/>
			<point x="446" y="597" type="line"/>
			<point x="302" y="520" type="line"/>
			<point x="302" y="714" type="line"/>
			<point x="214" y="714" type="line"/>
			<point x="214" y="475" type="line"/>
			<point x="40" y="382" type="line"/>
			<point x="76" y="322" type="line"/>
			<point x="214" y="396" type="line"/>
			<point x="214" y="314" type="line"/>
			<point x="40" y="221" type="line"/>
			<point x="76" y="161" type="line"/>
			<point x="214" y="235" type="line"/>
		</contour>
	</outline>
	<anchor name="below" x="258" y="-126"/>
</glyph>
<glyph name="uni16B0" format="2">
  <advance width="519"/>
  <unicode hex="16B0"/>
  <outline>
    <contour>
      <point x="214" y="0" type="line"/>
      <point x="302" y="0" type="line"/>
      <point x="302" y="440" type="line"/>
      <point x="478" y="536" type="line"/>
      <point x="448" y="598" type="line"/>
      <point x="302" y="520" type="line"/>
      <point x="302" y="714" type="line"/>
      <point x="214" y="714" type="line"/>
      <point x="214" y="475" type="line"/>
      <point x="40" y="382" type="line"/>
      <point x="76" y="322" type="line"/>
      <point x="214" y="396" type="line"/>
      <point x="214" y="314" type="line"/>
      <point x="40" y="221" type="line"/>
      <point x="76" y="161" type="line"/>
      <point x="214" y="235" type="line"/>
    </contour>
  </outline>
</glyph>
<glyph name="uni16B1" format="2">
	<unicode hex="16B1"/>
	<advance width="501"/>
	<outline>
		<contour>
			<point x="97" y="0" type="line"/>
			<point x="187" y="0" type="line"/>
			<point x="187" y="612" type="line"/>
			<point x="341" y="525" type="line"/>
			<point x="240" y="350" type="line"/>
			<point x="370" y="0" type="line"/>
			<point x="466" y="0" type="line"/>
			<point x="335" y="345" type="line"/>
			<point x="417" y="486" type="line"/>
			<point x="417" y="584" type="line"/>
			<point x="187" y="714" type="line"/>
			<point x="97" y="714" type="line"/>
		</contour>
	</outline>
	<anchor name="below" x="281" y="-126"/>
</glyph>
<glyph name="uni16B2" format="2">
  <advance width="334"/>
  <unicode hex="16B2"/>
  <outline>
    <contour>
      <point x="235" y="186" type="line"/>
      <point x="235" y="300" type="line"/>
      <point x="163" y="376" type="line"/>
      <point x="163" y="382" type="line"/>
      <point x="236" y="452" type="line"/>
      <point x="236" y="562" type="line"/>
      <point x="97" y="427" type="line"/>
      <point x="97" y="335" type="line"/>
    </contour>
  </outline>
</glyph>
<glyph name="uni16B3" format="2">
  <advance width="445"/>
  <unicode hex="16B3"/>
  <outline>
    <contour>
      <point x="97" y="0" type="line"/>
      <point x="187" y="0" type="line"/>
      <point x="187" y="236" type="line"/>
      <point x="337" y="0" type="line"/>
      <point x="445" y="0" type="line"/>
      <point x="187" y="368" type="line"/>
      <point x="187" y="714" type="line"/>
      <point x="97" y="714" type="line"/>
    </contour>
  </outline>
</glyph>
<glyph name="uni16B4" format="2">
	<unicode hex="16B4"/>
	<advance width="569"/>
	<outline>
		<contour>
			<point x="97" y="0" type="line"/>
			<point x="187" y="0" type="line"/>
			<point x="187" y="278" type="line"/>
			<point x="383" y="278"/>
			<point x="554" y="464"/>
			<point x="554" y="696" type="curve" smooth="yes"/>
			<point x="554" y="714" type="line"/>
			<point x="461" y="714" type="line"/>
			<point x="461" y="695" type="line" smooth="yes"/>
			<point x="461" y="518"/>
			<point x="353" y="355"/>
			<point x="187" y="355" type="curve"/>
			<point x="187" y="714" type="line"/>
			<point x="97" y="714" type="line"/>
		</contour>
	</outline>
	<anchor name="below" x="142" y="-126"/>
</glyph>
<glyph name="uni16B5" format="2">
	<unicode hex="16B5"/>
	<advance width="569"/>
	<outline>
		<contour>
			<point x="97" y="0" type="line"/>
			<point x="187" y="0" type="line"/>
			<point x="187" y="278" type="line"/>
			<point x="383" y="278"/>
			<point x="554" y="464"/>
			<point x="554" y="696" type="curve" smooth="yes"/>
			<point x="554" y="714" type="line"/>
			<point x="461" y="714" type="line"/>
			<point x="461" y="695" type="line" smooth="yes"/>
			<point x="461" y="518"/>
			<point x="353" y="355"/>
			<point x="187" y="355" type="curve"/>
			<point x="187" y="714" type="line"/>
			<point x="97" y="714" type="line"/>
		</contour>
		<contour>
			<point x="314" y="540" type="curve" smooth="yes"/>
			<point x="341" y="540"/>
			<point x="365" y="558"/>
			<point x="365" y="596" type="curve" smooth="yes"/>
			<point x="365" y="635"/>
			<point x="341" y="652"/>
			<point x="314" y="652" type="curve" smooth="yes"/>
			<point x="285" y="652"/>
			<point x="262" y="635"/>
			<point x="262" y="596" type="curve" smooth="yes"/>
			<point x="262" y="558"/>
			<point x="285" y="540"/>
		</contour>
	</outline>
	<anchor name="below" x="142" y="-126"/>
</glyph>
<glyph name="uni16B6" format="2">
	<unicode hex="16B6"/>
	<advance width="589"/>
	<outline>
		<contour>
			<point x="117" y="0" type="line"/>
			<point x="207" y="0" type="line"/>
			<point x="207" y="216" type="line"/>
			<point x="231" y="226"/>
			<point x="249" y="248"/>
			<point x="257" y="282" type="curve"/>
			<point x="431" y="310"/>
			<point x="574" y="484"/>
			<point x="574" y="696" type="curve" smooth="yes"/>
			<point x="574" y="714" type="line"/>
			<point x="481" y="714" type="line"/>
			<point x="481" y="695" type="line" smooth="yes"/>
			<point x="481" y="535"/>
			<point x="393" y="387"/>
			<point x="254" y="359" type="curve"/>
			<point x="246" y="388"/>
			<point x="228" y="406"/>
			<point x="207" y="416" type="curve"/>
			<point x="207" y="714" type="line"/>
			<point x="117" y="714" type="line"/>
			<point x="117" y="416" type="line"/>
			<point x="88" y="402"/>
			<point x="67" y="371"/>
			<point x="67" y="316" type="curve" smooth="yes"/>
			<point x="67" y="263"/>
			<point x="87" y="232"/>
			<point x="117" y="217" type="curve"/>
		</contour>
	</outline>
	<anchor name="below" x="142" y="-126"/>
</glyph>
<glyph name="uni16B7" format="2">
	<unicode hex="16B7"/>
	<advance width="586"/>
	<outline>
		<contour>
			<point x="4" y="0" type="line"/>
			<point x="99" y="0" type="line"/>
			<point x="291" y="310" type="line"/>
			<point x="480" y="0" type="line"/>
			<point x="582" y="0" type="line"/>
			<point x="344" y="374" type="line"/>
			<point x="565" y="714" type="line"/>
			<point x="470" y="714" type="line"/>
			<point x="294" y="434" type="line"/>
			<point x="119" y="714" type="line"/>
			<point x="19" y="714" type="line"/>
			<point x="241" y="372" type="line"/>
		</contour>
	</outline>
	<anchor name="below" x="293" y="-126"/>
</glyph>
<glyph name="uni16B8" format="2">
	<unicode hex="16B8"/>
	<advance width="644"/>
	<outline>
		<contour>
			<point x="40" y="0" type="line"/>
			<point x="127" y="0" type="line"/>
			<point x="319" y="310" type="line"/>
			<point x="516" y="0" type="line"/>
			<point x="604" y="0" type="line"/>
			<point x="501" y="162" type="line"/>
			<point x="601" y="349" type="line"/>
			<point x="601" y="361" type="line"/>
			<point x="493" y="566" type="line"/>
			<point x="589" y="714" type="line"/>
			<point x="497" y="714" type="line"/>
			<point x="322" y="434" type="line"/>
			<point x="147" y="714" type="line"/>
			<point x="55" y="714" type="line"/>
			<point x="151" y="566" type="line"/>
			<point x="43" y="361" type="line"/>
			<point x="43" y="349" type="line"/>
			<point x="143" y="162" type="line"/>
		</contour>
		<contour>
			<point x="183" y="236" type="line"/>
			<point x="120" y="353" type="line"/>
			<point x="120" y="357" type="line"/>
			<point x="191" y="494" type="line"/>
			<point x="269" y="372" type="line"/>
		</contour>
		<contour>
			<point x="459" y="230" type="line"/>
			<point x="372" y="374" type="line"/>
			<point x="450" y="497" type="line"/>
			<point x="524" y="357" type="line"/>
			<point x="524" y="353" type="line"/>
		</contour>
	</outline>
	<anchor name="below" x="293" y="-126"/>
</glyph>
<glyph name="uni16B9" format="2">
  <advance width="439"/>
  <unicode hex="16B9"/>
  <outline>
    <contour>
      <point x="97" y="0" type="line"/>
      <point x="187" y="0" type="line"/>
      <point x="187" y="228" type="line"/>
      <point x="404" y="436" type="line"/>
      <point x="404" y="520" type="line"/>
      <point x="187" y="714" type="line"/>
      <point x="97" y="714" type="line"/>
    </contour>
    <contour>
      <point x="187" y="336" type="line"/>
      <point x="187" y="614" type="line"/>
      <point x="330" y="479" type="line"/>
    </contour>
  </outline>
</glyph>
<glyph name="uni16BA" format="2">
  <advance width="731"/>
  <unicode hex="16BA"/>
  <outline>
    <contour>
      <point x="97" y="0" type="line"/>
      <point x="187" y="0" type="line"/>
      <point x="187" y="416" type="line"/>
      <point x="543" y="209" type="line"/>
      <point x="543" y="0" type="line"/>
      <point x="633" y="0" type="line"/>
      <point x="633" y="714" type="line"/>
      <point x="543" y="714" type="line"/>
      <point x="543" y="299" type="line"/>
      <point x="187" y="510" type="line"/>
      <point x="187" y="714" type="line"/>
      <point x="97" y="714" type="line"/>
    </contour>
  </outline>
</glyph>
<glyph name="uni16BB" format="2">
  <advance width="731"/>
  <unicode hex="16BB"/>
  <outline>
    <contour>
      <point x="97" y="0" type="line"/>
      <point x="187" y="0" type="line"/>
      <point x="187" y="324" type="line"/>
      <point x="543" y="117" type="line"/>
      <point x="543" y="0" type="line"/>
      <point x="633" y="0" type="line"/>
      <point x="633" y="714" type="line"/>
      <point x="543" y="714" type="line"/>
      <point x="543" y="393" type="line"/>
      <point x="187" y="604" type="line"/>
      <point x="187" y="714" type="line"/>
      <point x="97" y="714" type="line"/>
    </contour>
    <contour>
      <point x="543" y="202" type="line"/>
      <point x="187" y="413" type="line"/>
      <point x="187" y="515" type="line"/>
      <point x="543" y="308" type="line"/>
    </contour>
  </outline>
</glyph>
<glyph name="uni16BC" format="2">
  <advance width="513"/>
  <unicode hex="16BC"/>
  <outline>
    <contour>
      <point x="214" y="0" type="line"/>
      <point x="297" y="0" type="line"/>
      <point x="297" y="147" type="line" smooth="yes"/>
      <point x="297" y="188"/>
      <point x="294" y="247"/>
      <point x="292" y="281" type="curve"/>
      <point x="432" y="187" type="line"/>
      <point x="472" y="251" type="line"/>
      <point x="324" y="350" type="line"/>
      <point x="472" y="450" type="line"/>
      <point x="432" y="515" type="line"/>
      <point x="297" y="424" type="line"/>
      <point x="297" y="714" type="line"/>
      <point x="214" y="714" type="line"/>
      <point x="214" y="425" type="line"/>
      <point x="80" y="515" type="line"/>
      <point x="40" y="450" type="line"/>
      <point x="188" y="350" type="line"/>
      <point x="40" y="251" type="line"/>
      <point x="80" y="187" type="line"/>
      <point x="220" y="281" type="line"/>
      <point x="217" y="247"/>
      <point x="214" y="188"/>
      <point x="214" y="147" type="curve" smooth="yes"/>
    </contour>
  </outline>
</glyph>
<glyph name="uni16BD" format="2">
  <advance width="327"/>
  <unicode hex="16BD"/>
  <outline>
    <contour>
      <point x="117" y="0" type="line"/>
      <point x="207" y="0" type="line"/>
      <point x="207" y="270" type="line"/>
      <point x="238" y="284"/>
      <point x="260" y="316"/>
      <point x="260" y="370" type="curve" smooth="yes"/>
      <point x="260" y="425"/>
      <point x="238" y="456"/>
      <point x="207" y="470" type="curve"/>
      <point x="207" y="714" type="line"/>
      <point x="117" y="714" type="line"/>
      <point x="117" y="470" type="line"/>
      <point x="88" y="456"/>
      <point x="67" y="425"/>
      <point x="67" y="370" type="curve" smooth="yes"/>
      <point x="67" y="317"/>
      <point x="87" y="286"/>
      <point x="117" y="271" type="curve"/>
    </contour>
  </outline>
</glyph>
<glyph name="uni16BE" format="2">
  <advance width="508"/>
  <unicode hex="16BE"/>
  <outline>
    <contour>
      <point x="209" y="0" type="line"/>
      <point x="299" y="0" type="line"/>
      <point x="299" y="296" type="line"/>
      <point x="432" y="219" type="line"/>
      <point x="467" y="279" type="line"/>
      <point x="299" y="378" type="line"/>
      <point x="299" y="714" type="line"/>
      <point x="209" y="714" type="line"/>
      <point x="209" y="431" type="line"/>
      <point x="76" y="510" type="line"/>
      <point x="40" y="447" type="line"/>
      <point x="209" y="348" type="line"/>
    </contour>
  </outline>
</glyph>
<glyph name="uni16BF" format="2">
  <advance width="396"/>
  <unicode hex="16BF"/>
  <outline>
    <contour>
      <point x="97" y="0" type="line"/>
      <point x="187" y="0" type="line"/>
      <point x="187" y="296" type="line"/>
      <point x="320" y="219" type="line"/>
      <point x="355" y="279" type="line"/>
      <point x="187" y="378" type="line"/>
      <point x="187" y="714" type="line"/>
      <point x="97" y="714" type="line"/>
    </contour>
  </outline>
</glyph>
<glyph name="uni16C0" format="2">
	<unicode hex="16C0"/>
	<advance width="508"/>
	<outline>
		<contour>
			<point x="209" y="0" type="line"/>
			<point x="299" y="0" type="line"/>
			<point x="299" y="270" type="line"/>
			<point x="307" y="273"/>
			<point x="314" y="278"/>
			<point x="320" y="284" type="curve"/>
			<point x="432" y="219" type="line"/>
			<point x="467" y="279" type="line"/>
			<point x="350" y="348" type="line"/>
			<point x="351" y="355"/>
			<point x="352" y="362"/>
			<point x="352" y="370" type="curve" smooth="yes"/>
			<point x="352" y="425"/>
			<point x="330" y="456"/>
			<point x="299" y="470" type="curve"/>
			<point x="299" y="714" type="line"/>
			<point x="209" y="714" type="line"/>
			<point x="209" y="470" type="line"/>
			<point x="198" y="465"/>
			<point x="189" y="458"/>
			<point x="181" y="448" type="curve"/>
			<point x="76" y="510" type="line"/>
			<point x="40" y="447" type="line"/>
			<point x="159" y="378" type="line"/>
			<point x="159" y="370" type="line" smooth="yes"/>
			<point x="159" y="317"/>
			<point x="179" y="286"/>
			<point x="209" y="271" type="curve"/>
		</contour>
	</outline>
	<anchor name="below" x="254" y="-126"/>
</glyph>
<glyph name="uni16C1" format="2">
  <advance width="285"/>
  <unicode hex="16C1"/>
  <outline>
    <contour>
      <point x="96" y="0" type="line"/>
      <point x="188" y="0" type="line"/>
      <point x="188" y="714" type="line"/>
      <point x="96" y="714" type="line"/>
    </contour>
  </outline>
</glyph>
<glyph name="uni16C2" format="2">
	<unicode hex="16C2"/>
	<advance width="327"/>
	<outline>
		<contour>
			<point x="117" y="0" type="line"/>
			<point x="207" y="0" type="line"/>
			<point x="207" y="270" type="line"/>
			<point x="238" y="284"/>
			<point x="260" y="316"/>
			<point x="260" y="370" type="curve" smooth="yes"/>
			<point x="260" y="425"/>
			<point x="238" y="456"/>
			<point x="207" y="470" type="curve"/>
			<point x="207" y="714" type="line"/>
			<point x="117" y="714" type="line"/>
			<point x="117" y="470" type="line"/>
			<point x="88" y="456"/>
			<point x="67" y="425"/>
			<point x="67" y="370" type="curve" smooth="yes"/>
			<point x="67" y="317"/>
			<point x="87" y="286"/>
			<point x="117" y="271" type="curve"/>
		</contour>
	</outline>
	<anchor name="below" x="162" y="-126"/>
</glyph>
<glyph name="uni16C3" format="2">
	<unicode hex="16C3"/>
	<advance width="512"/>
	<outline>
		<contour>
			<point x="272" y="243" type="line"/>
			<point x="411" y="378" type="line"/>
			<point x="411" y="470" type="line"/>
			<point x="336" y="575" type="line"/>
			<point x="267" y="523" type="line"/>
			<point x="342" y="419" type="line"/>
			<point x="342" y="413" type="line"/>
			<point x="272" y="343" type="line"/>
		</contour>
		<contour>
			<point x="172" y="393" type="line"/>
			<point x="241" y="445" type="line"/>
			<point x="166" y="549" type="line"/>
			<point x="166" y="555" type="line"/>
			<point x="236" y="625" type="line"/>
			<point x="236" y="725" type="line"/>
			<point x="97" y="590" type="line"/>
			<point x="97" y="498" type="line"/>
		</contour>
	</outline>
	<anchor name="below" x="272" y="-126"/>
</glyph>
<glyph name="uni16C4" format="2">
	<unicode hex="16C4"/>
	<advance width="487"/>
	<outline>
		<contour>
			<point x="197" y="0" type="line"/>
			<point x="289" y="0" type="line"/>
			<point x="289" y="187" type="line"/>
			<point x="437" y="320" type="line"/>
			<point x="437" y="404" type="line"/>
			<point x="289" y="524" type="line"/>
			<point x="289" y="714" type="line"/>
			<point x="199" y="714" type="line"/>
			<point x="199" y="524" type="line"/>
			<point x="50" y="404" type="line"/>
			<point x="50" y="323" type="line"/>
			<point x="197" y="189" type="line"/>
		</contour>
		<contour>
			<point x="199" y="288" type="line"/>
			<point x="115" y="364" type="line"/>
			<point x="199" y="431" type="line"/>
		</contour>
		<contour>
			<point x="289" y="288" type="line"/>
			<point x="289" y="431" type="line"/>
			<point x="372" y="364" type="line"/>
		</contour>
	</outline>
	<anchor name="below" x="243" y="-126"/>
</glyph>
<glyph name="uni16C5" format="2">
  <advance width="519"/>
  <unicode hex="16C5"/>
  <outline>
    <contour>
      <point x="214" y="0" type="line"/>
      <point x="304" y="0" type="line"/>
      <point x="304" y="352" type="line"/>
      <point x="478" y="447" type="line"/>
      <point x="448" y="509" type="line"/>
      <point x="304" y="432" type="line"/>
      <point x="304" y="714" type="line"/>
      <point x="214" y="714" type="line"/>
      <point x="214" y="386" type="line"/>
      <point x="40" y="293" type="line"/>
      <point x="76" y="233" type="line"/>
      <point x="214" y="307" type="line"/>
    </contour>
  </outline>
</glyph>
<glyph name="uni16C6" format="2">
  <advance width="402"/>
  <unicode hex="16C6"/>
  <outline>
    <contour>
      <point x="214" y="0" type="line"/>
      <point x="304" y="0" type="line"/>
      <point x="304" y="714" type="line"/>
      <point x="214" y="714" type="line"/>
      <point x="214" y="386" type="line"/>
      <point x="40" y="293" type="line"/>
      <point x="76" y="233" type="line"/>
      <point x="214" y="307" type="line"/>
    </contour>
  </outline>
</glyph>
<glyph name="uni16C7" format="2">
  <advance width="508"/>
  <unicode hex="16C7"/>
  <outline>
    <contour>
      <point x="209" y="0" type="line"/>
      <point x="299" y="0" type="line"/>
      <point x="299" y="632" type="line"/>
      <point x="432" y="555" type="line"/>
      <point x="467" y="615" type="line"/>
      <point x="299" y="714" type="line"/>
      <point x="209" y="714" type="line"/>
      <point x="209" y="83" type="line"/>
      <point x="76" y="162" type="line"/>
      <point x="40" y="99" type="line"/>
    </contour>
  </outline>
</glyph>
<glyph name="uni16C8" format="2">
  <advance width="459"/>
  <unicode hex="16C8"/>
  <outline>
    <contour>
      <point x="97" y="0" type="line"/>
      <point x="187" y="0" type="line"/>
      <point x="312" y="116" type="line"/>
      <point x="448" y="0" type="line"/>
      <point x="448" y="95" type="line"/>
      <point x="313" y="211" type="line"/>
      <point x="187" y="97" type="line"/>
      <point x="187" y="614" type="line"/>
      <point x="313" y="503" type="line"/>
      <point x="448" y="619" type="line"/>
      <point x="448" y="714" type="line"/>
      <point x="312" y="598" type="line"/>
      <point x="187" y="714" type="line"/>
      <point x="97" y="714" type="line"/>
    </contour>
  </outline>
</glyph>
<glyph name="uni16C9" format="2">
  <advance width="607"/>
  <unicode hex="16C9"/>
  <outline>
    <contour>
      <point x="258" y="0" type="line"/>
      <point x="348" y="0" type="line"/>
      <point x="348" y="346" type="line"/>
      <point x="606" y="714" type="line"/>
      <point x="498" y="714" type="line"/>
      <point x="348" y="478" type="line"/>
      <point x="348" y="714" type="line"/>
      <point x="258" y="714" type="line"/>
      <point x="258" y="478" type="line"/>
      <point x="108" y="714" type="line"/>
      <point x="0" y="714" type="line"/>
      <point x="258" y="346" type="line"/>
    </contour>
  </outline>
</glyph>
<glyph name="uni16CA" format="2">
  <advance width="381"/>
  <unicode hex="16CA"/>
  <outline>
    <contour>
      <point x="203" y="0" type="line"/>
      <point x="325" y="0" type="line"/>
      <point x="158" y="180" type="line"/>
      <point x="158" y="184" type="line"/>
      <point x="335" y="364" type="line"/>
      <point x="335" y="369" type="line"/>
      <point x="158" y="530" type="line"/>
      <point x="158" y="534" type="line"/>
      <point x="345" y="714" type="line"/>
      <point x="223" y="714" type="line"/>
      <point x="38" y="534" type="line"/>
      <point x="38" y="530" type="line"/>
      <point x="213" y="368" type="line"/>
      <point x="213" y="364" type="line"/>
      <point x="38" y="184" type="line"/>
      <point x="38" y="180" type="line"/>
    </contour>
  </outline>
</glyph>
<glyph name="uni16CB" format="2">
  <advance width="653"/>
  <unicode hex="16CB"/>
  <outline>
    <contour>
      <point x="465" y="0" type="line"/>
      <point x="555" y="0" type="line"/>
      <point x="555" y="530" type="line"/>
      <point x="465" y="530" type="line"/>
      <point x="187" y="319" type="line"/>
      <point x="187" y="714" type="line"/>
      <point x="97" y="714" type="line"/>
      <point x="97" y="217" type="line"/>
      <point x="187" y="217" type="line"/>
      <point x="465" y="424" type="line"/>
    </contour>
  </outline>
</glyph>
<glyph name="uni16CC" format="2">
  <advance width="285"/>
  <unicode hex="16CC"/>
  <outline>
    <contour>
      <point x="97" y="460" type="line"/>
      <point x="187" y="460" type="line"/>
      <point x="187" y="714" type="line"/>
      <point x="97" y="714" type="line"/>
    </contour>
  </outline>
</glyph>
<glyph name="uni16CD" format="2">
  <advance width="327"/>
  <unicode hex="16CD"/>
  <outline>
    <contour>
      <point x="163" y="262" type="curve" smooth="yes"/>
      <point x="217" y="262"/>
      <point x="260" y="294"/>
      <point x="260" y="370" type="curve" smooth="yes"/>
      <point x="260" y="425"/>
      <point x="238" y="456"/>
      <point x="207" y="470" type="curve"/>
      <point x="207" y="714" type="line"/>
      <point x="117" y="714" type="line"/>
      <point x="117" y="470" type="line"/>
      <point x="88" y="456"/>
      <point x="67" y="425"/>
      <point x="67" y="370" type="curve" smooth="yes"/>
      <point x="67" y="294"/>
      <point x="109" y="262"/>
    </contour>
  </outline>
</glyph>
<glyph name="uni16CE" format="2">
  <advance width="519"/>
  <unicode hex="16CE"/>
  <outline>
    <contour>
      <point x="214" y="271" type="line"/>
      <point x="304" y="271" type="line"/>
      <point x="478" y="366" type="line"/>
      <point x="448" y="428" type="line"/>
      <point x="304" y="351" type="line"/>
      <point x="304" y="714" type="line"/>
      <point x="214" y="714" type="line"/>
      <point x="214" y="354" type="line"/>
      <point x="81" y="433" type="line"/>
      <point x="45" y="370" type="line"/>
    </contour>
  </outline>
</glyph>
<glyph name="uni16CF" format="2">
  <advance width="513"/>
  <unicode hex="16CF"/>
  <outline>
    <contour>
      <point x="214" y="0" type="line"/>
      <point x="304" y="0" type="line"/>
      <point x="304" y="632" type="line"/>
      <point x="437" y="555" type="line"/>
      <point x="472" y="615" type="line"/>
      <point x="304" y="714" type="line"/>
      <point x="214" y="714" type="line"/>
      <point x="40" y="621" type="line"/>
      <point x="76" y="561" type="line"/>
      <point x="214" y="635" type="line"/>
    </contour>
  </outline>
</glyph>
<glyph name="uni16D0" format="2">
  <advance width="403"/>
  <unicode hex="16D0"/>
  <outline>
    <contour>
      <point x="212" y="0" type="line"/>
      <point x="305" y="0" type="line"/>
      <point x="305" y="714" type="line"/>
      <point x="214" y="714" type="line"/>
      <point x="40" y="621" type="line"/>
      <point x="76" y="559" type="line"/>
      <point x="212" y="633" type="line"/>
    </contour>
  </outline>
</glyph>
<glyph name="uni16D1" format="2">
	<unicode hex="16D1"/>
	<advance width="424"/>
	<outline>
		<contour>
			<point x="214" y="0" type="line"/>
			<point x="304" y="0" type="line"/>
			<point x="304" y="270" type="line"/>
			<point x="335" y="284"/>
			<point x="357" y="316"/>
			<point x="357" y="370" type="curve" smooth="yes"/>
			<point x="357" y="425"/>
			<point x="335" y="456"/>
			<point x="304" y="470" type="curve"/>
			<point x="304" y="714" type="line"/>
			<point x="214" y="714" type="line"/>
			<point x="40" y="621" type="line"/>
			<point x="76" y="561" type="line"/>
			<point x="214" y="635" type="line"/>
			<point x="214" y="470" type="line"/>
			<point x="185" y="456"/>
			<point x="164" y="425"/>
			<point x="164" y="370" type="curve" smooth="yes"/>
			<point x="164" y="317"/>
			<point x="184" y="286"/>
			<point x="214" y="271" type="curve"/>
		</contour>
	</outline>
	<anchor name="below" x="258" y="-126"/>
</glyph>
<glyph name="uni16D2" format="2">
  <advance width="509"/>
  <unicode hex="16D2"/>
  <outline>
    <contour>
      <point x="97" y="0" type="line"/>
      <point x="187" y="0" type="line"/>
      <point x="464" y="176" type="line"/>
      <point x="464" y="260" type="line"/>
      <point x="295" y="361" type="line"/>
      <point x="464" y="466" type="line"/>
      <point x="464" y="550" type="line"/>
      <point x="187" y="714" type="line"/>
      <point x="97" y="714" type="line"/>
    </contour>
    <contour>
      <point x="187" y="96" type="line"/>
      <point x="187" y="334" type="line"/>
      <point x="380" y="219" type="line"/>
    </contour>
    <contour>
      <point x="187" y="386" type="line"/>
      <point x="187" y="624" type="line"/>
      <point x="380" y="509" type="line"/>
    </contour>
  </outline>
</glyph>
<glyph name="uni16D3" format="2">
  <advance width="402"/>
  <unicode hex="16D3"/>
  <outline>
    <contour>
      <point x="97" y="0" type="line"/>
      <point x="187" y="0" type="line"/>
      <point x="187" y="280" type="line"/>
      <point x="361" y="375" type="line"/>
      <point x="331" y="437" type="line"/>
      <point x="187" y="360" type="line"/>
      <point x="187" y="441" type="line"/>
      <point x="361" y="536" type="line"/>
      <point x="331" y="598" type="line"/>
      <point x="187" y="521" type="line"/>
      <point x="187" y="714" type="line"/>
      <point x="97" y="714" type="line"/>
    </contour>
  </outline>
</glyph>
<glyph name="uni16D4" format="2">
	<unicode hex="16D4"/>
	<advance width="550"/>
	<outline>
		<contour>
			<point x="97" y="0" type="line"/>
			<point x="248" y="0" type="line" smooth="yes"/>
			<point x="401" y="0"/>
			<point x="496" y="73"/>
			<point x="496" y="203" type="curve" smooth="yes"/>
			<point x="496" y="307"/>
			<point x="426" y="356"/>
			<point x="336" y="371" type="curve"/>
			<point x="336" y="376" type="line"/>
			<point x="424" y="392"/>
			<point x="490" y="432"/>
			<point x="490" y="538" type="curve" smooth="yes"/>
			<point x="490" y="657"/>
			<point x="394" y="714"/>
			<point x="250" y="714" type="curve" smooth="yes"/>
			<point x="97" y="714" type="line"/>
		</contour>
		<contour>
			<point x="285" y="166" type="curve" smooth="yes"/>
			<point x="306" y="166"/>
			<point x="322" y="179"/>
			<point x="322" y="207" type="curve" smooth="yes"/>
			<point x="322" y="236"/>
			<point x="306" y="248"/>
			<point x="285" y="248" type="curve" smooth="yes"/>
			<point x="263" y="248"/>
			<point x="247" y="236"/>
			<point x="247" y="207" type="curve" smooth="yes"/>
			<point x="247" y="179"/>
			<point x="263" y="166"/>
		</contour>
		<contour>
			<point x="187" y="76" type="line"/>
			<point x="187" y="337" type="line"/>
			<point x="229" y="337" type="line" smooth="yes"/>
			<point x="356" y="337"/>
			<point x="400" y="278"/>
			<point x="400" y="207" type="curve" smooth="yes"/>
			<point x="400" y="133"/>
			<point x="357" y="76"/>
			<point x="231" y="76" type="curve" smooth="yes"/>
		</contour>
		<contour>
			<point x="285" y="486" type="curve" smooth="yes"/>
			<point x="306" y="486"/>
			<point x="322" y="499"/>
			<point x="322" y="527" type="curve" smooth="yes"/>
			<point x="322" y="556"/>
			<point x="306" y="568"/>
			<point x="285" y="568" type="curve" smooth="yes"/>
			<point x="263" y="568"/>
			<point x="247" y="556"/>
			<point x="247" y="527" type="curve" smooth="yes"/>
			<point x="247" y="499"/>
			<point x="263" y="486"/>
		</contour>
		<contour>
			<point x="187" y="410" type="line"/>
			<point x="187" y="637" type="line"/>
			<point x="228" y="637" type="line" smooth="yes"/>
			<point x="356" y="637"/>
			<point x="397" y="595"/>
			<point x="397" y="529" type="curve" smooth="yes"/>
			<point x="397" y="460"/>
			<point x="357" y="410"/>
			<point x="230" y="410" type="curve" smooth="yes"/>
		</contour>
	</outline>
	<anchor name="below" x="296" y="-126"/>
</glyph>
<glyph name="uni16D5" format="2">
  <advance width="517"/>
  <unicode hex="16D5"/>
  <outline>
    <contour>
      <point x="97" y="0" type="line"/>
      <point x="187" y="0" type="line"/>
      <point x="187" y="362" type="line"/>
      <point x="405" y="0" type="line"/>
      <point x="512" y="0" type="line"/>
      <point x="275" y="367" type="line"/>
      <point x="504" y="714" type="line"/>
      <point x="402" y="714" type="line"/>
      <point x="187" y="368" type="line"/>
      <point x="187" y="714" type="line"/>
      <point x="97" y="714" type="line"/>
    </contour>
  </outline>
</glyph>
<glyph name="uni16D6" format="2">
  <advance width="736"/>
  <unicode hex="16D6"/>
  <outline>
    <contour>
      <point x="97" y="0" type="line"/>
      <point x="187" y="0" type="line"/>
      <point x="187" y="614" type="line"/>
      <point x="363" y="491" type="line"/>
      <point x="548" y="615" type="line"/>
      <point x="548" y="0" type="line"/>
      <point x="638" y="0" type="line"/>
      <point x="638" y="714" type="line"/>
      <point x="548" y="714" type="line"/>
      <point x="363" y="588" type="line"/>
      <point x="187" y="714" type="line"/>
      <point x="97" y="714" type="line"/>
    </contour>
  </outline>
</glyph>
<glyph name="uni16D7" format="2">
	<unicode hex="16D7"/>
	<advance width="754"/>
	<outline>
		<contour>
			<point x="97" y="0" type="line"/>
			<point x="184" y="0" type="line"/>
			<point x="184" y="244" type="line"/>
			<point x="382" y="428" type="line"/>
			<point x="579" y="245" type="line"/>
			<point x="579" y="0" type="line"/>
			<point x="666" y="0" type="line"/>
			<point x="666" y="714" type="line"/>
			<point x="579" y="714" type="line"/>
			<point x="381" y="530" type="line"/>
			<point x="184" y="714" type="line"/>
			<point x="97" y="714" type="line"/>
		</contour>
		<contour>
			<point x="184" y="347" type="line"/>
			<point x="184" y="610" type="line"/>
			<point x="326" y="480" type="line"/>
		</contour>
		<contour>
			<point x="579" y="347" type="line"/>
			<point x="437" y="479" type="line"/>
			<point x="579" y="611" type="line"/>
		</contour>
	</outline>
	<anchor name="below" x="367" y="-126"/>
</glyph>
<glyph name="uni16D8" format="2">
	<unicode hex="16D8"/>
	<advance width="662"/>
	<outline>
		<contour>
			<point x="283" y="0" type="line"/>
			<point x="379" y="0" type="line"/>
			<point x="379" y="440" type="line"/>
			<point x="496" y="451"/>
			<point x="615" y="516"/>
			<point x="647" y="714" type="curve"/>
			<point x="552" y="714" type="line"/>
			<point x="531" y="609"/>
			<point x="487" y="534"/>
			<point x="379" y="519" type="curve"/>
			<point x="379" y="714" type="line"/>
			<point x="283" y="714" type="line"/>
			<point x="283" y="519" type="line"/>
			<point x="175" y="534"/>
			<point x="131" y="609"/>
			<point x="110" y="714" type="curve"/>
			<point x="15" y="714" type="line"/>
			<point x="47" y="516"/>
			<point x="166" y="451"/>
			<point x="283" y="440" type="curve"/>
		</contour>
	</outline>
	<anchor name="below" x="331" y="-126"/>
</glyph>
<glyph name="uni16D9" format="2">
	<unicode hex="16D9"/>
	<advance width="352"/>
	<outline>
		<contour>
			<point x="129" y="0" type="line"/>
			<point x="219" y="0" type="line"/>
			<point x="219" y="519" type="line"/>
			<point x="250" y="533"/>
			<point x="272" y="564"/>
			<point x="272" y="618" type="curve" smooth="yes"/>
			<point x="272" y="695"/>
			<point x="229" y="725"/>
			<point x="175" y="725" type="curve" smooth="yes"/>
			<point x="121" y="725"/>
			<point x="79" y="695"/>
			<point x="79" y="618" type="curve" smooth="yes"/>
			<point x="79" y="564"/>
			<point x="98" y="533"/>
			<point x="129" y="519" type="curve"/>
		</contour>
	</outline>
	<anchor name="below" x="175" y="-126"/>
</glyph>
<glyph name="uni16DA" format="2">
  <advance width="397"/>
  <unicode hex="16DA"/>
  <outline>
    <contour>
      <point x="97" y="0" type="line"/>
      <point x="190" y="0" type="line"/>
      <point x="190" y="630" type="line"/>
      <point x="321" y="553" type="line"/>
      <point x="356" y="615" type="line"/>
      <point x="188" y="714" type="line"/>
      <point x="97" y="714" type="line"/>
    </contour>
  </outline>
</glyph>
<glyph name="uni16DB" format="2">
  <advance width="429"/>
  <unicode hex="16DB"/>
  <outline>
    <contour>
      <point x="130" y="0" type="line"/>
      <point x="220" y="0" type="line"/>
      <point x="220" y="270" type="line"/>
      <point x="251" y="284"/>
      <point x="273" y="316"/>
      <point x="273" y="370" type="curve" smooth="yes"/>
      <point x="273" y="425"/>
      <point x="251" y="456"/>
      <point x="220" y="470" type="curve"/>
      <point x="220" y="632" type="line"/>
      <point x="353" y="555" type="line"/>
      <point x="388" y="615" type="line"/>
      <point x="220" y="714" type="line"/>
      <point x="130" y="714" type="line"/>
      <point x="130" y="470" type="line"/>
      <point x="101" y="456"/>
      <point x="80" y="425"/>
      <point x="80" y="370" type="curve" smooth="yes"/>
      <point x="80" y="317"/>
      <point x="100" y="286"/>
      <point x="130" y="271" type="curve"/>
    </contour>
  </outline>
</glyph>
<glyph name="uni16DC" format="2">
  <advance width="531"/>
  <unicode hex="16DC"/>
  <outline>
    <contour>
      <point x="215" y="209" type="line"/>
      <point x="315" y="209" type="line"/>
      <point x="433" y="335" type="line"/>
      <point x="433" y="427" type="line"/>
      <point x="315" y="542" type="line"/>
      <point x="215" y="542" type="line"/>
      <point x="97" y="427" type="line"/>
      <point x="97" y="335" type="line"/>
    </contour>
    <contour>
      <point x="250" y="284" type="line"/>
      <point x="163" y="376" type="line"/>
      <point x="163" y="382" type="line"/>
      <point x="250" y="467" type="line"/>
      <point x="280" y="467" type="line"/>
      <point x="367" y="382" type="line"/>
      <point x="367" y="376" type="line"/>
      <point x="280" y="284" type="line"/>
    </contour>
  </outline>
</glyph>
<glyph name="uni16DD" format="2">
	<unicode hex="16DD"/>
	<advance width="588"/>
	<outline>
		<contour>
			<point x="44" y="0" type="line"/>
			<point x="156" y="0" type="line"/>
			<point x="293" y="128" type="line"/>
			<point x="431" y="0" type="line"/>
			<point x="543" y="0" type="line"/>
			<point x="351" y="182" type="line"/>
			<point x="552" y="370" type="line"/>
			<point x="351" y="544" type="line"/>
			<point x="544" y="714" type="line"/>
			<point x="432" y="714" type="line"/>
			<point x="293" y="594" type="line"/>
			<point x="155" y="714" type="line"/>
			<point x="43" y="714" type="line"/>
			<point x="236" y="544" type="line"/>
			<point x="35" y="370" type="line"/>
			<point x="236" y="182" type="line"/>
		</contour>
		<contour>
			<point x="293" y="237" type="line"/>
			<point x="154" y="370" type="line"/>
			<point x="293" y="493" type="line"/>
			<point x="433" y="370" type="line"/>
		</contour>
	</outline>
	<anchor name="below" x="293" y="-126"/>
</glyph>
<glyph name="uni16DE" format="2">
  <advance width="731"/>
  <unicode hex="16DE"/>
  <outline>
    <contour>
      <point x="97" y="0" type="line"/>
      <point x="180" y="0" type="line"/>
      <point x="366" y="290" type="line"/>
      <point x="555" y="0" type="line"/>
      <point x="633" y="0" type="line"/>
      <point x="633" y="714" type="line"/>
      <point x="555" y="714" type="line"/>
      <point x="366" y="423" type="line"/>
      <point x="180" y="714" type="line"/>
      <point x="97" y="714" type="line"/>
    </contour>
    <contour>
      <point x="180" y="135" type="line"/>
      <point x="180" y="578" type="line"/>
      <point x="184" y="578" type="line"/>
      <point x="323" y="357" type="line"/>
      <point x="184" y="135" type="line"/>
    </contour>
    <contour>
      <point x="551" y="129" type="line"/>
      <point x="409" y="357" type="line"/>
      <point x="551" y="584" type="line"/>
      <point x="555" y="584" type="line"/>
      <point x="555" y="129" type="line"/>
    </contour>
  </outline>
</glyph>
<glyph name="uni16DF" format="2">
	<unicode hex="16DF"/>
	<advance width="582"/>
	<outline>
		<contour>
			<point x="38" y="0" type="line"/>
			<point x="147" y="0" type="line"/>
			<point x="291" y="175" type="line"/>
			<point x="435" y="0" type="line"/>
			<point x="544" y="0" type="line"/>
			<point x="349" y="230" type="line"/>
			<point x="544" y="461" type="line"/>
			<point x="336" y="714" type="line"/>
			<point x="242" y="714" type="line"/>
			<point x="38" y="461" type="line"/>
			<point x="233" y="230" type="line"/>
		</contour>
		<contour>
			<point x="291" y="286" type="line"/>
			<point x="141" y="463" type="line"/>
			<point x="289" y="648" type="line"/>
			<point x="441" y="463" type="line"/>
		</contour>
	</outline>
	<anchor name="below" x="291" y="-126"/>
</glyph>
<glyph name="uni16E0" format="2">
  <advance width="633"/>
  <unicode hex="16E0"/>
  <outline>
    <contour>
      <point x="271" y="0" type="line"/>
      <point x="361" y="0" type="line"/>
      <point x="361" y="614" type="line"/>
      <point x="487" y="503" type="line"/>
      <point x="622" y="619" type="line"/>
      <point x="622" y="714" type="line"/>
      <point x="486" y="598" type="line"/>
      <point x="361" y="714" type="line"/>
      <point x="271" y="714" type="line"/>
      <point x="146" y="598" type="line"/>
      <point x="10" y="714" type="line"/>
      <point x="10" y="624" type="line"/>
      <point x="145" y="508" type="line"/>
      <point x="271" y="624" type="line"/>
    </contour>
  </outline>
</glyph>
<glyph name="uni16E1" format="2">
	<unicode hex="16E1"/>
	<advance width="513"/>
	<outline>
		<contour>
			<point x="214" y="0" type="line"/>
			<point x="297" y="0" type="line"/>
			<point x="297" y="147" type="line" smooth="yes"/>
			<point x="297" y="188"/>
			<point x="294" y="247"/>
			<point x="292" y="281" type="curve"/>
			<point x="432" y="187" type="line"/>
			<point x="472" y="251" type="line"/>
			<point x="324" y="350" type="line"/>
			<point x="472" y="450" type="line"/>
			<point x="432" y="515" type="line"/>
			<point x="297" y="424" type="line"/>
			<point x="297" y="714" type="line"/>
			<point x="214" y="714" type="line"/>
			<point x="214" y="425" type="line"/>
			<point x="80" y="515" type="line"/>
			<point x="40" y="450" type="line"/>
			<point x="188" y="350" type="line"/>
			<point x="40" y="251" type="line"/>
			<point x="80" y="187" type="line"/>
			<point x="220" y="281" type="line"/>
			<point x="217" y="247"/>
			<point x="214" y="188"/>
			<point x="214" y="147" type="curve" smooth="yes"/>
		</contour>
	</outline>
	<anchor name="below" x="256" y="-126"/>
</glyph>
<glyph name="uni16E2" format="2">
  <advance width="633"/>
  <unicode hex="16E2"/>
  <outline>
    <contour>
      <point x="10" y="0" type="line"/>
      <point x="146" y="116" type="line"/>
      <point x="271" y="0" type="line"/>
      <point x="361" y="0" type="line"/>
      <point x="361" y="614" type="line"/>
      <point x="487" y="503" type="line"/>
      <point x="622" y="619" type="line"/>
      <point x="622" y="714" type="line"/>
      <point x="486" y="598" type="line"/>
      <point x="361" y="714" type="line"/>
      <point x="271" y="714" type="line"/>
      <point x="271" y="97" type="line"/>
      <point x="145" y="211" type="line"/>
      <point x="10" y="95" type="line"/>
    </contour>
  </outline>
</glyph>
<glyph name="uni16E3" format="2">
  <advance width="607"/>
  <unicode hex="16E3"/>
  <outline>
    <contour>
      <point x="0" y="0" type="line"/>
      <point x="108" y="0" type="line"/>
      <point x="258" y="236" type="line"/>
      <point x="258" y="0" type="line"/>
      <point x="348" y="0" type="line"/>
      <point x="348" y="236" type="line"/>
      <point x="498" y="0" type="line"/>
      <point x="606" y="0" type="line"/>
      <point x="348" y="368" type="line"/>
      <point x="348" y="714" type="line"/>
      <point x="258" y="714" type="line"/>
      <point x="258" y="368" type="line"/>
    </contour>
  </outline>
</glyph>
<glyph name="uni16E4" format="2">
	<unicode hex="16E4"/>
	<advance width="686"/>
	<outline>
		<contour>
			<point x="40" y="0" type="line"/>
			<point x="132" y="0" type="line"/>
			<point x="304" y="272" type="line"/>
			<point x="304" y="0" type="line"/>
			<point x="379" y="0" type="line"/>
			<point x="379" y="266" type="line"/>
			<point x="551" y="0" type="line"/>
			<point x="646" y="0" type="line"/>
			<point x="538" y="160" type="line"/>
			<point x="640" y="349" type="line"/>
			<point x="640" y="361" type="line"/>
			<point x="529" y="571" type="line"/>
			<point x="629" y="714" type="line"/>
			<point x="532" y="714" type="line"/>
			<point x="379" y="480" type="line"/>
			<point x="379" y="714" type="line"/>
			<point x="304" y="714" type="line"/>
			<point x="304" y="482" type="line"/>
			<point x="152" y="714" type="line"/>
			<point x="55" y="714" type="line"/>
			<point x="154" y="571" type="line"/>
			<point x="43" y="361" type="line"/>
			<point x="43" y="349" type="line"/>
			<point x="145" y="160" type="line"/>
		</contour>
		<contour>
			<point x="188" y="225" type="line"/>
			<point x="120" y="353" type="line"/>
			<point x="120" y="357" type="line"/>
			<point x="196" y="506" type="line"/>
			<point x="289" y="372" type="line"/>
		</contour>
		<contour>
			<point x="495" y="225" type="line"/>
			<point x="392" y="374" type="line"/>
			<point x="484" y="508" type="line"/>
			<point x="563" y="357" type="line"/>
			<point x="563" y="353" type="line"/>
		</contour>
	</outline>
	<anchor name="below" x="343" y="-126"/>
</glyph>
<glyph name="uni16E5" format="2">
	<unicode hex="16E5"/>
	<advance width="731"/>
	<outline>
		<contour>
			<point x="97" y="0" type="line"/>
			<point x="180" y="0" type="line"/>
			<point x="366" y="129" type="line"/>
			<point x="555" y="0" type="line"/>
			<point x="633" y="0" type="line"/>
			<point x="633" y="714" type="line"/>
			<point x="555" y="714" type="line"/>
			<point x="366" y="584" type="line"/>
			<point x="180" y="714" type="line"/>
			<point x="97" y="714" type="line"/>
		</contour>
		<contour>
			<point x="180" y="82" type="line"/>
			<point x="180" y="258" type="line"/>
			<point x="308" y="170" type="line"/>
		</contour>
		<contour>
			<point x="555" y="79" type="line"/>
			<point x="424" y="170" type="line"/>
			<point x="555" y="261" type="line"/>
		</contour>
		<contour>
			<point x="366" y="210" type="line"/>
			<point x="180" y="340" type="line"/>
			<point x="180" y="374" type="line"/>
			<point x="366" y="503" type="line"/>
			<point x="555" y="374" type="line"/>
			<point x="555" y="340" type="line"/>
		</contour>
		<contour>
			<point x="180" y="456" type="line"/>
			<point x="180" y="632" type="line"/>
			<point x="308" y="544" type="line"/>
		</contour>
		<contour>
			<point x="555" y="453" type="line"/>
			<point x="424" y="544" type="line"/>
			<point x="555" y="635" type="line"/>
		</contour>
	</outline>
	<anchor name="below" x="365" y="-126"/>
</glyph>
<glyph name="uni16E6" format="2">
  <advance width="662"/>
  <unicode hex="16E6"/>
  <outline>
    <contour>
      <point x="15" y="0" type="curve"/>
      <point x="110" y="0" type="line"/>
      <point x="131" y="105"/>
      <point x="175" y="180"/>
      <point x="283" y="195" type="curve"/>
      <point x="283" y="0" type="line"/>
      <point x="379" y="0" type="line"/>
      <point x="379" y="195" type="line"/>
      <point x="487" y="180"/>
      <point x="531" y="105"/>
      <point x="552" y="0" type="curve"/>
      <point x="647" y="0" type="line"/>
      <point x="615" y="198"/>
      <point x="496" y="263"/>
      <point x="379" y="274" type="curve"/>
      <point x="379" y="714" type="line"/>
      <point x="283" y="714" type="line"/>
      <point x="283" y="274" type="line"/>
      <point x="166" y="263"/>
      <point x="47" y="198"/>
    </contour>
  </outline>
</glyph>
<glyph name="uni16E7" format="2">
  <advance width="285"/>
  <unicode hex="16E7"/>
  <outline>
    <contour>
      <point x="97" y="0" type="line"/>
      <point x="187" y="0" type="line"/>
      <point x="187" y="271" type="line"/>
      <point x="97" y="271" type="line"/>
    </contour>
  </outline>
</glyph>
<glyph name="uni16E8" format="2">
  <advance width="519"/>
  <unicode hex="16E8"/>
  <outline>
    <contour>
      <point x="214" y="0" type="line"/>
      <point x="304" y="0" type="line"/>
      <point x="478" y="95" type="line"/>
      <point x="448" y="157" type="line"/>
      <point x="304" y="80" type="line"/>
      <point x="304" y="630" type="line"/>
      <point x="442" y="560" type="line"/>
      <point x="477" y="621" type="line"/>
      <point x="304" y="714" type="line"/>
      <point x="214" y="714" type="line"/>
      <point x="40" y="621" type="line"/>
      <point x="76" y="561" type="line"/>
      <point x="214" y="635" type="line"/>
      <point x="214" y="83" type="line"/>
      <point x="81" y="162" type="line"/>
      <point x="45" y="99" type="line"/>
    </contour>
  </outline>
</glyph>
<glyph name="uni16E9" format="2">
  <advance width="439"/>
  <unicode hex="16E9"/>
  <outline>
    <contour>
      <point x="252" y="0" type="line"/>
      <point x="342" y="0" type="line"/>
      <point x="342" y="714" type="line"/>
      <point x="252" y="714" type="line"/>
      <point x="35" y="520" type="line"/>
      <point x="35" y="436" type="line"/>
      <point x="252" y="228" type="line"/>
    </contour>
    <contour>
      <point x="252" y="336" type="line"/>
      <point x="109" y="479" type="line"/>
      <point x="252" y="614" type="line"/>
    </contour>
  </outline>
</glyph>
<glyph name="uni16EA" format="2">
  <advance width="765"/>
  <unicode hex="16EA"/>
  <outline>
    <contour>
      <point x="521" y="0" type="line"/>
      <point x="611" y="0" type="line"/>
      <point x="611" y="80" type="line"/>
      <point x="754" y="80" type="line"/>
      <point x="754" y="159" type="line"/>
      <point x="611" y="159" type="line"/>
      <point x="611" y="530" type="line"/>
      <point x="521" y="530" type="line"/>
      <point x="243" y="319" type="line"/>
      <point x="243" y="560" type="line"/>
      <point x="384" y="560" type="line"/>
      <point x="384" y="639" type="line"/>
      <point x="243" y="639" type="line"/>
      <point x="243" y="714" type="line"/>
      <point x="153" y="714" type="line"/>
      <point x="153" y="639" type="line"/>
      <point x="10" y="639" type="line"/>
      <point x="10" y="560" type="line"/>
      <point x="153" y="560" type="line"/>
      <point x="153" y="219" type="line"/>
      <point x="243" y="219" type="line"/>
      <point x="521" y="426" type="line"/>
      <point x="521" y="159" type="line"/>
      <point x="380" y="159" type="line"/>
      <point x="380" y="80" type="line"/>
      <point x="521" y="80" type="line"/>
    </contour>
  </outline>
</glyph>
<glyph name="uni16EB" format="2">
  <advance width="366"/>
  <unicode hex="16EB"/>
  <outline>
    <contour>
      <point x="183" y="266" type="curve" smooth="yes"/>
      <point x="233" y="266"/>
      <point x="272" y="295"/>
      <point x="272" y="365" type="curve" smooth="yes"/>
      <point x="272" y="437"/>
      <point x="233" y="464"/>
      <point x="183" y="464" type="curve" smooth="yes"/>
      <point x="133" y="464"/>
      <point x="94" y="437"/>
      <point x="94" y="365" type="curve" smooth="yes"/>
      <point x="94" y="295"/>
      <point x="133" y="266"/>
    </contour>
  </outline>
</glyph>
<glyph name="uni16EC" format="2">
  <advance width="277"/>
  <unicode hex="16EC"/>
  <outline>
    <contour>
      <point x="136" y="422" type="curve" smooth="yes"/>
      <point x="170" y="422"/>
      <point x="199" y="442"/>
      <point x="199" y="490" type="curve" smooth="yes"/>
      <point x="199" y="540"/>
      <point x="170" y="558"/>
      <point x="136" y="558" type="curve" smooth="yes"/>
      <point x="102" y="558"/>
      <point x="75" y="540"/>
      <point x="75" y="490" type="curve" smooth="yes"/>
      <point x="75" y="442"/>
      <point x="102" y="422"/>
    </contour>
    <contour>
      <point x="136" y="174" type="curve" smooth="yes"/>
      <point x="170" y="174"/>
      <point x="199" y="194"/>
      <point x="199" y="242" type="curve" smooth="yes"/>
      <point x="199" y="291"/>
      <point x="170" y="309"/>
      <point x="136" y="309" type="curve" smooth="yes"/>
      <point x="102" y="309"/>
      <point x="75" y="291"/>
      <point x="75" y="242" type="curve" smooth="yes"/>
      <point x="75" y="194"/>
      <point x="102" y="174"/>
    </contour>
  </outline>
</glyph>
<glyph name="uni16ED" format="2">
  <advance width="463"/>
  <unicode hex="16ED"/>
  <outline>
    <contour>
      <point x="165" y="200" type="line"/>
      <point x="308" y="200" type="line"/>
      <point x="261" y="345" type="line"/>
      <point x="413" y="309" type="line"/>
      <point x="413" y="436" type="line"/>
      <point x="261" y="397" type="line"/>
      <point x="308" y="551" type="line"/>
      <point x="165" y="551" type="line"/>
      <point x="207" y="397" type="line"/>
      <point x="58" y="436" type="line"/>
      <point x="58" y="309" type="line"/>
      <point x="207" y="345" type="line"/>
    </contour>
  </outline>
</glyph>
<glyph name="uni16EE" format="2">
  <advance width="513"/>
  <unicode hex="16EE"/>
  <outline>
    <contour>
      <point x="214" y="0" type="line"/>
      <point x="304" y="0" type="line"/>
      <point x="304" y="632" type="line"/>
      <point x="437" y="555" type="line"/>
      <point x="472" y="615" type="line"/>
      <point x="304" y="714" type="line"/>
      <point x="214" y="714" type="line"/>
      <point x="214" y="386" type="line"/>
      <point x="40" y="293" type="line"/>
      <point x="76" y="233" type="line"/>
      <point x="214" y="307" type="line"/>
    </contour>
  </outline>
</glyph>
<glyph name="uni16EF" format="2">
  <advance width="662"/>
  <unicode hex="16EF"/>
  <outline>
    <contour>
      <point x="15" y="0" type="curve"/>
      <point x="110" y="0" type="line"/>
      <point x="131" y="105"/>
      <point x="175" y="180"/>
      <point x="283" y="195" type="curve"/>
      <point x="283" y="0" type="line"/>
      <point x="379" y="0" type="line"/>
      <point x="379" y="195" type="line"/>
      <point x="487" y="180"/>
      <point x="531" y="105"/>
      <point x="552" y="0" type="curve"/>
      <point x="647" y="0" type="line"/>
      <point x="615" y="198"/>
      <point x="496" y="263"/>
      <point x="379" y="274" type="curve"/>
      <point x="379" y="440" type="line"/>
      <point x="496" y="451"/>
      <point x="615" y="516"/>
      <point x="647" y="714" type="curve"/>
      <point x="552" y="714" type="line"/>
      <point x="531" y="609"/>
      <point x="487" y="534"/>
      <point x="379" y="519" type="curve"/>
      <point x="379" y="714" type="line"/>
      <point x="283" y="714" type="line"/>
      <point x="283" y="519" type="line"/>
      <point x="175" y="534"/>
      <point x="131" y="609"/>
      <point x="110" y="714" type="curve"/>
      <point x="15" y="714" type="line"/>
      <point x="47" y="516"/>
      <point x="166" y="451"/>
      <point x="283" y="440" type="curve"/>
      <point x="283" y="274" type="line"/>
      <point x="166" y="263"/>
      <point x="47" y="198"/>
    </contour>
  </outline>
</glyph>
<glyph name="uni16F0" format="2">
	<unicode hex="16F0"/>
	<advance width="602"/>
	<outline>
		<contour>
			<point x="254" y="0" type="line"/>
			<point x="346" y="0" type="line"/>
			<point x="346" y="133" type="line"/>
			<point x="465" y="136"/>
			<point x="552" y="225"/>
			<point x="552" y="356" type="curve" smooth="yes"/>
			<point x="552" y="488"/>
			<point x="468" y="573"/>
			<point x="346" y="578" type="curve"/>
			<point x="346" y="714" type="line"/>
			<point x="256" y="714" type="line"/>
			<point x="256" y="578" type="line"/>
			<point x="134" y="573"/>
			<point x="50" y="488"/>
			<point x="50" y="356" type="curve" smooth="yes"/>
			<point x="50" y="225"/>
			<point x="135" y="136"/>
			<point x="254" y="133" type="curve"/>
		</contour>
		<contour>
			<point x="256" y="206" type="line"/>
			<point x="186" y="216"/>
			<point x="143" y="261"/>
			<point x="143" y="357" type="curve" smooth="yes"/>
			<point x="143" y="449"/>
			<point x="185" y="494"/>
			<point x="256" y="504" type="curve"/>
		</contour>
		<contour>
			<point x="346" y="206" type="curve"/>
			<point x="346" y="504" type="line"/>
			<point x="417" y="494"/>
			<point x="459" y="449"/>
			<point x="459" y="357" type="curve" smooth="yes"/>
			<point x="459" y="261"/>
			<point x="416" y="216"/>
		</contour>
	</outline>
	<anchor name="below" x="301" y="-126"/>
</glyph>
<glyph name="uni16F1" format="2">
  <advance width="516"/>
  <unicode hex="16F1"/>
  <outline>
    <contour>
      <point x="97" y="0" type="line"/>
      <point x="187" y="0" type="line"/>
      <point x="187" y="266" type="line"/>
      <point x="273" y="310" type="line"/>
      <point x="406" y="0" type="line"/>
      <point x="506" y="0" type="line"/>
      <point x="328" y="423" type="line"/>
      <point x="187" y="352" type="line"/>
      <point x="187" y="714" type="line"/>
      <point x="97" y="714" type="line"/>
    </contour>
  </outline>
</glyph>
<glyph name="uni16F2" format="2">
	<unicode hex="16F2"/>
	<advance width="552"/>
	<outline>
		<contour>
			<point x="97" y="0" type="line"/>
			<point x="187" y="0" type="line"/>
			<point x="187" y="385" type="line"/>
			<point x="365" y="233" type="line"/>
			<point x="455" y="233" type="line"/>
			<point x="455" y="714" type="line"/>
			<point x="365" y="714" type="line"/>
			<point x="365" y="346" type="line"/>
			<point x="187" y="500" type="line"/>
			<point x="97" y="500" type="line"/>
		</contour>
	</outline>
	<anchor name="below" x="276" y="-126"/>
</glyph>
<glyph name="uni16F3" format="2">
	<unicode hex="16F3"/>
	<advance width="456"/>
	<outline>
		<contour>
			<point x="183" y="0" type="line"/>
			<point x="273" y="0" type="line"/>
			<point x="273" y="380" type="line"/>
			<point x="421" y="511" type="line"/>
			<point x="421" y="585" type="line"/>
			<point x="273" y="714" type="line"/>
			<point x="183" y="714" type="line"/>
			<point x="35" y="585" type="line"/>
			<point x="35" y="511" type="line"/>
			<point x="183" y="380" type="line"/>
		</contour>
		<contour>
			<point x="183" y="469" type="line"/>
			<point x="96" y="548" type="line"/>
			<point x="183" y="626" type="line"/>
		</contour>
		<contour>
			<point x="273" y="469" type="line"/>
			<point x="273" y="626" type="line"/>
			<point x="359" y="548" type="line"/>
		</contour>
	</outline>
	<anchor name="below" x="228" y="-126"/>
</glyph>
<glyph name="uni16F4" format="2">
	<unicode hex="16F4"/>
	<advance width="553"/>
	<outline>
		<contour>
			<point x="365" y="0" type="line"/>
			<point x="455" y="0" type="line"/>
			<point x="455" y="386" type="line"/>
			<point x="518" y="410" type="line"/>
			<point x="490" y="482" type="line"/>
			<point x="455" y="468" type="line"/>
			<point x="455" y="510" type="line"/>
			<point x="365" y="510" type="line"/>
			<point x="365" y="433" type="line"/>
			<point x="187" y="365" type="line"/>
			<point x="187" y="714" type="line"/>
			<point x="97" y="714" type="line"/>
			<point x="97" y="330" type="line"/>
			<point x="35" y="306" type="line"/>
			<point x="62" y="237" type="line"/>
			<point x="97" y="250" type="line"/>
			<point x="97" y="209" type="line"/>
			<point x="187" y="209" type="line"/>
			<point x="187" y="284" type="line"/>
			<point x="365" y="352" type="line"/>
		</contour>
	</outline>
	<anchor name="below" x="276" y="-126"/>
</glyph>
<glyph name="uni16F5" format="2">
  <advance width="372"/>
  <unicode hex="16F5"/>
  <outline>
    <contour>
      <point x="176" y="0" type="line"/>
      <point x="292" y="0" type="line"/>
      <point x="171" y="119" type="line"/>
      <point x="266" y="211" type="line"/>
      <point x="266" y="265" type="line"/>
      <point x="171" y="357" type="line"/>
      <point x="266" y="449" type="line"/>
      <point x="266" y="503" type="line"/>
      <point x="171" y="595" type="line"/>
      <point x="292" y="714" type="line"/>
      <point x="176" y="714" type="line"/>
      <point x="80" y="622" type="line"/>
      <point x="80" y="568" type="line"/>
      <point x="176" y="476" type="line"/>
      <point x="80" y="384" type="line"/>
      <point x="80" y="330" type="line"/>
      <point x="176" y="238" type="line"/>
      <point x="80" y="146" type="line"/>
      <point x="80" y="92" type="line"/>
    </contour>
  </outline>
</glyph>
<glyph name="uni16F6" format="2">
  <advance width="474"/>
  <unicode hex="16F6"/>
  <outline>
    <contour>
      <point x="346" y="0" type="line"/>
      <point x="439" y="0" type="line"/>
      <point x="289" y="348" type="line"/>
      <point x="424" y="445" type="line"/>
      <point x="378" y="507" type="line"/>
      <point x="258" y="420" type="line"/>
      <point x="132" y="714" type="line"/>
      <point x="35" y="714" type="line"/>
      <point x="186" y="367" type="line"/>
      <point x="50" y="268" type="line"/>
      <point x="95" y="209" type="line"/>
      <point x="216" y="296" type="line"/>
    </contour>
  </outline>
</glyph>
<glyph name="uni16F7" format="2">
  <advance width="504"/>
  <unicode hex="16F7"/>
  <outline>
    <contour>
      <point x="97" y="0" type="line"/>
      <point x="187" y="0" type="line"/>
      <point x="187" y="423" type="line"/>
      <point x="299" y="405"/>
      <point x="361" y="297"/>
      <point x="361" y="134" type="curve" smooth="yes"/>
      <point x="361" y="0" type="line"/>
      <point x="454" y="0" type="line"/>
      <point x="454" y="128" type="line" smooth="yes"/>
      <point x="454" y="415"/>
      <point x="283" y="502"/>
      <point x="187" y="506" type="curve"/>
      <point x="187" y="714" type="line"/>
      <point x="97" y="714" type="line"/>
    </contour>
  </outline>
</glyph>
<glyph name="uni16F8" format="2">
  <advance width="566"/>
  <unicode hex="16F8"/>
  <outline>
    <contour>
      <point x="10" y="0" type="line"/>
      <point x="118" y="0" type="line"/>
      <point x="284" y="240" type="line"/>
      <point x="448" y="0" type="line"/>
      <point x="556" y="0" type="line"/>
      <point x="328" y="328" type="line"/>
      <point x="328" y="714" type="line"/>
      <point x="238" y="714" type="line"/>
      <point x="238" y="328" type="line"/>
    </contour>
  </outline>
</glyph>
